<svg width="674" height="424" viewBox="0 0 674 424" fill="none" xmlns="http://www.w3.org/2000/svg">
<path d="M654.299 159.552C653.197 160.849 649.305 158.903 647.684 158.514C639.716 155.932 631.063 156.488 623.492 160.071C618.043 162.6 617.265 164.481 620.314 166.816C623.313 169.043 625.396 172.289 626.172 175.943C626.948 179.597 626.364 183.409 624.529 186.663C624.014 187.755 623.281 188.73 622.374 189.527C621.467 190.324 620.407 190.927 619.258 191.298C618.109 191.669 616.896 191.8 615.694 191.683C614.492 191.566 613.327 191.204 612.271 190.619C604.683 187.311 597.159 183.809 589.376 180.955C571.569 174.366 552.42 172.228 533.598 174.729C516.174 176.863 499.386 182.606 484.306 191.592C475.81 196.716 466.924 202.294 462.06 205.666C457.974 208.52 453.239 213.255 451.294 210.466C449.283 207.612 461.412 196.197 466.666 191.527C473.025 185.651 479.739 180.171 486.771 175.118C502.101 164.205 519.008 155.697 536.906 149.888C557.923 143.313 579.751 139.689 601.764 139.122C612.288 138.511 622.841 139.584 633.026 142.3C640.665 143.868 647.599 147.846 652.808 153.65C653.91 155.077 655.661 157.995 654.299 159.552Z" fill="white"/>
<path d="M673.497 227.719C673.099 227.264 672.611 226.896 672.064 226.639C671.517 226.382 670.923 226.242 670.319 226.227C658.792 225.527 647.461 222.919 636.787 218.509C622.324 212.736 608.055 206.51 593.851 200.154C580.925 193.849 567.019 189.791 552.73 188.155C539.879 186.965 526.926 188.717 514.853 193.279C504.294 197.25 494.22 202.407 484.824 208.65C472.194 217.074 460.186 226.395 448.892 236.539C426.063 257.294 404.984 279.929 381.31 299.906C380.45 300.726 379.765 301.712 379.297 302.805C378.829 303.897 378.587 305.073 378.587 306.262C379.238 312.333 380.632 318.301 382.737 324.033C387.288 338.42 395.101 351.56 405.567 362.429C415.42 372.828 427.178 381.239 440.202 387.205C448.752 391.282 457.652 394.581 466.794 397.063C476.789 399.231 486.937 400.619 497.148 401.214C517.905 403.086 538.8 399.719 557.919 391.421C574.646 384.236 589.989 374.183 603.256 361.716C612.652 352.557 620.827 342.224 627.577 330.973C634.989 319.476 640.119 306.661 642.689 293.225C644.82 282.815 644.93 272.092 643.014 261.639C642.429 258.332 640.678 256.84 638.863 257.359C637.047 257.813 636.918 261.25 636.853 262.872C636.884 265.48 636.362 268.065 635.322 270.457C634.283 272.849 632.749 274.995 630.821 276.751C630.466 277.213 630.004 277.581 629.475 277.824C628.946 278.067 628.366 278.177 627.784 278.145C627.203 278.113 626.638 277.94 626.139 277.641C625.64 277.341 625.221 276.925 624.919 276.427C623.115 273.905 621.694 271.129 620.704 268.19C618.364 261.828 617.412 255.039 617.914 248.279C618.303 242.247 620.639 239.458 626.735 239.393C630.756 239.393 636.918 239.587 638.863 239.652C645.646 239.95 652.441 239.624 659.164 238.679C663.664 237.992 667.896 236.111 671.422 233.231C672.294 232.639 672.962 231.791 673.334 230.804C673.706 229.817 673.762 228.739 673.497 227.719ZM461.216 262.353C467.961 256.451 474.382 249.9 481.387 244.322C486.666 239.823 492.355 235.827 498.379 232.388C501.393 230.435 504.851 229.275 508.432 229.016C510.225 229.073 511.966 229.632 513.456 230.63C514.947 231.627 516.128 233.023 516.864 234.658C523.505 244.537 526.759 256.304 526.138 268.19C525.884 274.411 524.062 280.468 520.842 285.797C517.622 291.126 513.108 295.555 507.718 298.674C498.948 304.341 488.29 306.3 478.078 304.122C469.6 302.048 461.788 297.852 455.378 291.928C451.167 287.468 447.408 282.602 444.157 277.4C450.06 272.536 456.092 266.828 461.216 262.353L461.216 262.353ZM576.858 285.507C575.964 298.366 571.642 310.751 564.341 321.374C553.981 335.11 539.819 345.506 523.61 351.274C510.471 356.793 496.274 359.34 482.036 358.732C467.861 358.158 454.011 354.318 441.564 347.512C430.355 341.657 420.671 333.261 413.286 322.995C410.432 319.039 407.838 314.823 405.244 310.672C404.691 309.918 404.433 308.988 404.516 308.057C404.6 307.126 405.019 306.257 405.697 305.613C411.081 300.879 416.335 296.079 421.717 291.409C423.468 289.853 424.701 290.826 425.804 292.447C429.631 298.025 433.327 303.668 437.349 309.051C441.497 314.032 446.505 318.228 452.136 321.439C462.473 327.709 474.367 330.944 486.456 330.772C498.545 330.6 510.342 327.028 520.497 320.466C534.37 312.027 544.715 298.847 549.618 283.367C552.848 272.946 553.778 261.948 552.342 251.132C551.191 239.876 547.7 228.985 542.094 219.157C541.64 218.444 540.213 216.174 541.122 215.46C542.094 214.682 544.753 216.692 545.921 217.471C558.158 225.481 567.431 237.283 572.318 251.068C576.555 262.021 578.112 273.83 576.859 285.507L576.858 285.507Z" fill="white"/>
<path d="M652.201 5.40063C643.059 12.5755 635.912 21.9774 631.445 32.7059C629.483 40.2376 626.354 47.4156 622.171 53.9794C618.837 57.5927 614.797 60.4843 610.302 62.4759C606.67 64.6811 606.346 64.8756 609.005 68.1185C613.5 73.9806 615.937 81.1616 615.937 88.5489C615.937 95.9361 613.5 103.117 609.005 108.979C605.889 112.433 601.968 115.062 597.59 116.633C585.396 121.043 561.204 124.221 544.731 129.604C526.838 135.752 509.59 143.638 493.233 153.147C476.097 164.291 460.355 177.442 446.34 192.322C430.645 209.704 412.484 234.155 402.172 247.386C391.47 261.136 378.109 277.74 371.948 285.328C366.565 292.074 363.387 296.873 360.533 296.808C359.041 296.808 358.329 294.084 357.744 292.787C355.618 289.243 352.572 286.34 348.93 284.388C345.287 282.435 341.184 281.505 337.055 281.696H336.925C332.797 281.505 328.693 282.435 325.05 284.387C321.407 286.34 318.361 289.243 316.235 292.787C315.651 294.084 314.938 296.808 313.446 296.808C310.592 296.873 307.414 292.074 302.031 285.328C295.87 277.74 282.509 261.136 271.807 247.386C261.494 234.155 243.335 209.704 227.639 192.322C213.624 177.442 197.882 164.29 180.746 153.147C164.39 143.638 147.142 135.752 129.249 129.604C112.775 124.221 88.5829 121.043 76.3895 116.633C72.0116 115.062 68.0902 112.433 64.9745 108.979C60.479 103.117 58.0424 95.9362 58.0424 88.5489C58.0424 81.1616 60.479 73.9805 64.9745 68.1185C67.6336 64.8756 67.3094 64.6811 63.6768 62.4759C59.182 60.4842 55.1429 57.5926 51.8089 53.9794C47.6262 47.4156 44.4966 40.2376 42.5338 32.7059C38.0669 21.9774 30.9201 12.5754 21.778 5.40063C17.433 2.74144 17.9514 1.31456 19.0545 0.665974C27.0432 -0.321633 35.1361 -0.0810356 43.052 1.37941C58.7142 4.65752 73.1943 12.1217 84.9505 22.9772C95.4583 31.5381 105.446 40.8781 115.693 49.8285C127.887 60.5301 140.015 71.4263 156.1 76.161C165.963 78.741 176.295 78.9632 186.26 76.8095C194.756 75.3175 203.252 73.7612 211.749 72.0746C217.91 70.8423 224.072 69.4154 230.234 67.924C249.942 63.1593 270.247 61.3451 290.487 62.5407C301.1 63.0763 311.646 64.5302 322.008 66.8862C326.898 68.3654 331.913 69.3932 336.99 69.9568C342.061 69.3492 347.072 68.3222 351.972 66.8862C362.334 64.5302 372.881 63.0763 383.494 62.5407C403.734 61.3452 424.039 63.1594 443.747 67.924C449.908 69.4157 456.069 70.8423 462.231 72.0746C470.727 73.7609 479.224 75.3175 487.721 76.8095C497.685 78.9632 508.017 78.741 517.88 76.161C533.964 71.4263 546.094 60.5301 558.286 49.8285C568.534 40.8781 578.523 31.5385 589.029 22.9775C600.786 12.1222 615.266 4.65806 630.928 1.37974C638.844 -0.0806759 646.937 -0.321273 654.926 0.666298C656.027 1.31449 656.546 2.74118 652.201 5.40063Z" fill="white"/>
<path d="M19.6999 159.552C20.8025 160.849 24.694 158.903 26.3155 158.514C34.2832 155.932 42.9365 156.488 50.5076 160.071C55.9563 162.6 56.734 164.481 53.6856 166.816C50.6864 169.043 48.6032 172.289 47.8271 175.943C47.051 179.597 47.6354 183.409 49.4705 186.663C49.9853 187.755 50.7187 188.73 51.6253 189.527C52.532 190.324 53.5927 190.927 54.7417 191.298C55.8907 191.669 57.1035 191.8 58.3052 191.683C59.5069 191.566 60.6719 191.204 61.728 190.619C69.3164 187.311 76.8405 183.809 84.6229 180.955C102.431 174.366 121.579 172.228 140.402 174.729C157.825 176.863 174.613 182.606 189.693 191.592C198.19 196.716 207.075 202.294 211.94 205.666C216.026 208.52 220.76 213.255 222.706 210.466C224.717 207.612 212.588 196.197 207.334 191.527C200.975 185.651 194.26 180.171 187.229 175.118C171.899 164.205 154.992 155.697 137.093 149.888C116.077 143.313 94.2489 139.689 72.2352 139.122C61.7118 138.511 51.1584 139.584 40.9732 142.3C33.3342 143.868 26.4002 147.846 21.1914 153.65C20.0895 155.077 18.3382 157.995 19.6999 159.552Z" fill="white"/>
<path d="M376.94 362.251C351.516 372.174 336.988 423.477 336.988 423.931C336.988 423.477 322.46 372.174 297.036 362.251C314.872 316.396 316.687 300.246 336.923 299.727H337.053C357.288 300.246 359.104 316.396 376.94 362.251Z" fill="white"/>
<path d="M2.57789 233.232C6.10307 236.111 10.3359 237.993 14.8354 238.68C21.5583 239.625 28.3537 239.95 35.1361 239.653C37.0814 239.588 43.2434 239.393 47.2646 239.393C53.3609 239.458 55.6961 242.247 56.0859 248.279C56.5872 255.04 55.6359 261.829 53.2959 268.191C52.3052 271.13 50.8847 273.905 49.0808 276.428C48.7787 276.926 48.3599 277.342 47.8606 277.641C47.3613 277.941 46.7965 278.114 46.2152 278.146C45.6339 278.178 45.0536 278.068 44.5245 277.825C43.9954 277.582 43.5335 277.214 43.1787 276.752C41.2508 274.995 39.7165 272.85 38.6769 270.458C37.6372 268.066 37.1157 265.481 37.1465 262.872C37.0817 261.251 36.9526 257.814 35.1363 257.36C33.3209 256.841 31.5696 258.332 30.9854 261.64C29.0687 272.092 29.1789 282.816 31.31 293.226C33.8801 306.661 39.0107 319.477 46.422 330.974C53.1728 342.225 61.3476 352.558 70.7438 361.716C84.0103 374.183 99.3533 384.236 116.08 391.422C135.199 399.72 156.094 403.087 176.852 401.215C187.062 400.619 197.211 399.232 207.206 397.064C216.347 394.582 225.247 391.282 233.798 387.206C246.822 381.24 258.58 372.829 268.433 362.43C278.899 351.561 286.712 338.42 291.262 324.034C293.367 318.302 294.761 312.334 295.413 306.263C295.413 305.074 295.171 303.898 294.703 302.805C294.235 301.713 293.55 300.727 292.689 299.907C269.015 279.93 247.936 257.295 225.107 236.54C213.813 226.395 201.805 217.075 189.175 208.651C179.779 202.408 169.705 197.251 159.146 193.28C147.073 188.718 134.12 186.966 121.269 188.156C106.98 189.792 93.0746 193.849 80.1486 200.155C65.9442 206.511 51.6749 212.737 37.2117 218.509C26.5385 222.919 15.2075 225.527 3.68048 226.228C3.07634 226.243 2.48192 226.383 1.93486 226.64C1.38781 226.897 0.900029 227.264 0.502422 227.719C0.236761 228.74 0.293651 229.818 0.665277 230.805C1.0369 231.792 1.70503 232.64 2.57789 233.232ZM229.841 277.4C226.59 282.602 222.831 287.468 218.62 291.929C212.21 297.853 204.398 302.049 195.92 304.122C185.708 306.3 175.049 304.341 166.28 298.674C160.89 295.556 156.376 291.126 153.155 285.797C149.935 280.468 148.113 274.412 147.859 268.19C147.238 256.304 150.493 244.537 157.134 234.659C157.87 233.023 159.051 231.627 160.541 230.63C162.032 229.632 163.772 229.073 165.565 229.016C169.147 229.276 172.605 230.436 175.618 232.389C181.643 235.828 187.332 239.823 192.611 244.323C199.616 249.9 206.036 256.451 212.782 262.353C217.907 266.828 223.938 272.536 229.841 277.4ZM101.681 251.068C106.568 237.283 115.841 225.481 128.078 217.471C129.246 216.693 131.905 214.682 132.878 215.461C133.786 216.174 132.359 218.444 131.905 219.157C126.299 228.986 122.809 239.877 121.657 251.133C120.222 261.948 121.151 272.946 124.381 283.367C129.284 298.848 139.629 312.028 153.503 320.466C163.657 327.028 175.454 330.6 187.543 330.772C199.632 330.944 211.526 327.71 221.863 321.439C227.494 318.228 232.502 314.032 236.65 309.051C240.672 303.668 244.369 298.025 248.195 292.447C249.298 290.826 250.531 289.853 252.282 291.41C257.664 296.08 262.918 300.879 268.302 305.614C268.98 306.258 269.4 307.126 269.483 308.058C269.567 308.989 269.308 309.918 268.756 310.673C266.161 314.823 263.567 319.039 260.713 322.996C253.329 333.262 243.644 341.658 232.435 347.512C219.988 354.319 206.138 358.159 191.963 358.733C177.725 359.34 163.528 356.793 150.389 351.274C134.18 345.507 120.018 335.111 109.658 321.374C102.357 310.751 98.035 298.367 97.1406 285.508C95.8871 273.83 97.4437 262.022 101.681 251.068H101.681Z" fill="white"/>
</svg>
