<?xml version="1.0" encoding="UTF-8" standalone="no"?>
<!-- Created with Inkscape (http://www.inkscape.org/) -->

<svg
   width="1280"
   height="720"
   viewBox="0 0 1280 720"
   version="1.1"
   id="svg1"
   xmlns="http://www.w3.org/2000/svg"
   xmlns:svg="http://www.w3.org/2000/svg">
  <defs
     id="defs1" />
  <g
     id="layer1">
    <rect
       style="fill:#d5e4f0"
       id="rect1"
       width="1280"
       height="720"
       x="0"
       y="0" />
    <circle
       style="fill:#0966b8;fill-opacity:1"
       id="path1"
       cx="255"
       cy="205"
       r="130" />
    <path
       style="fill:none;stroke:#0966b8;stroke-width:7.55906;stroke-linecap:butt;stroke-linejoin:miter;stroke-dasharray:none;stroke-opacity:1"
       d="M 1.3223815,458.86638 C 42.398818,422.10655 95.100705,398.53575 149.88381,392.42262 c 54.7831,-6.11314 111.38439,5.26075 159.55346,32.06185 27.38681,15.23793 51.8353,35.13698 76.69813,54.21764 35.76139,27.44462 73.11111,53.63404 114.95016,70.41432 41.83905,16.78028 88.89635,23.62124 132.33518,11.57333 26.76116,-7.4223 51.30524,-21.75421 72.55779,-39.631 21.25254,-17.87679 39.34178,-39.25413 55.5188,-61.82744 32.35402,-45.14664 57.38765,-95.3342 91.43875,-139.21499 48.77851,-62.85962 115.78524,-111.40245 190.71542,-138.16324 74.9302,-26.76079 157.5282,-31.64821 235.0914,-13.91064"
       id="path3"
       transform="matrix(1.0046554,0,0,0.99997169,-1.9839025,46.293604)" />
    <path
       style="fill:#0966b8;fill-opacity:1;fill-rule:evenodd;stroke:#0966b8;stroke-width:9.99596;stroke-dasharray:none;stroke-opacity:1;paint-order:normal"
       d="M 0.66215927,614.57681 0.66312765,509.77807 11.571806,501.05106 c 36.978613,-29.58315 77.164431,-47.67905 124.633494,-56.12317 6.54578,-1.16441 21.72011,-2.4519 33.72072,-2.86108 55.45992,-1.89101 107.57742,12.95673 155.45636,44.28791 8.76979,5.7388 31.68005,22.32338 50.91169,36.8546 37.09317,28.02723 54.75201,40.29743 75.61032,52.53762 60.79744,35.67754 119.94795,48.63328 172.83385,37.85581 40.88173,-8.33116 80.47161,-32.84261 113.97789,-70.5676 21.52772,-24.23822 36.28071,-45.20215 69.9342,-99.37615 36.76712,-59.1862 53.96453,-82.32207 82.63481,-111.16951 33.78307,-33.99182 67.1727,-58.20152 109.94796,-79.7196 64.5327,-32.46307 137.1718,-47.74235 208.4626,-43.84909 24.862,1.35774 55.1854,5.31323 67.3942,8.79114 2.1935,0.62486 2.3142,13.72063 2.3142,251.16142 V 719.37554 H 640.03265 0.66119076 Z"
       id="path4" />
  </g>
</svg>
